<svg xmlns="http://www.w3.org/2000/svg" viewBox="0 0 84.43 84.43"><defs><style>.a{fill:none;}.b{fill:#ed1c29;}</style></defs><rect class="a" width="84.43" height="84.43"/><path class="b" d="M74.2,25.71a2.56,2.56,0,1,0-1-2.47L57,24a2.79,2.79,0,0,0-4.52-1.43L43.9,15.94a2,2,0,1,0-3.19.79l-4.06,9a3.3,3.3,0,0,0-3.49,1.22L22.82,21.56a3.22,3.22,0,0,0,.14-.93,3.18,3.18,0,1,0-.66,1.92L32.65,27.9a3.1,3.1,0,0,0-.16,1,3.28,3.28,0,0,0,.62,1.92l-5.95,6a5,5,0,0,0-7.48,1.46L11.24,34.7a2.42,2.42,0,0,0,0-.47,2.59,2.59,0,1,0-.48,1.5l8.44,3.59a5.13,5.13,0,0,0-.2,1.42,5,5,0,0,0,1.69,3.75l-4.27,6.06a2,2,0,0,0-.65-.11,2,2,0,1,0,2,2,2,2,0,0,0-.45-1.26l4.26-6.06a5,5,0,0,0,6.15-1.07l5,3.54A3.36,3.36,0,0,0,32.49,49a3.33,3.33,0,0,0,6.65,0,2.64,2.64,0,0,0,0-.28l11.41-3a4.07,4.07,0,0,0,6.38,1.55l5,4.45a2.31,2.31,0,0,0-.28,1.11A2.35,2.35,0,1,0,64,50.55a2.32,2.32,0,0,0-1.32.41l-5-4.46a4.05,4.05,0,0,0-2.81-6.29l0-12.81a2.84,2.84,0,0,0,1.53-.89L65.92,32l8,11.47a1.49,1.49,0,1,0,1.25-.68,1.24,1.24,0,0,0-.33,0L67.07,31.62ZM41.74,17.2l.29,0a2,2,0,0,0,1.18-.39l8.55,6.61a2.69,2.69,0,0,0-.29,1.23A2.78,2.78,0,0,0,53.7,27.4l0,12.81a4,4,0,0,0-2.17,1L38.69,30.56a3.3,3.3,0,0,0-1-4.4Zm-2.9,30.46a3.32,3.32,0,0,0-3-1.95,3.28,3.28,0,0,0-2.35,1l-5-3.54A5,5,0,0,0,28,37.61l5.95-6A3.31,3.31,0,0,0,38,31.43L50.83,42.09a4.14,4.14,0,0,0-.61,2.14,3.59,3.59,0,0,0,0,.47ZM56.91,25.53a2.13,2.13,0,0,0,.1-.42l16.29-.75a2.6,2.6,0,0,0,.18.49l-7.23,6Z"/><path d="M21.47,72.65a6.68,6.68,0,0,1-5.06-1.88,7,7,0,0,1-1.78-5,6.37,6.37,0,0,1,2-4.91A7.34,7.34,0,0,1,21.8,59a8.49,8.49,0,0,1,3.09.54A6.23,6.23,0,0,1,28.5,63,5.68,5.68,0,0,1,29,65.23a4.28,4.28,0,0,1-.95,3,3.08,3.08,0,0,1-2.35,1,2.29,2.29,0,0,1-2.14-1.08h-.08a2.41,2.41,0,0,1-2.15,1.08,2.7,2.7,0,0,1-2.28-1,4.33,4.33,0,0,1,0-4.93,2.5,2.5,0,0,1,2.12-1,2.61,2.61,0,0,1,1,.16,2.84,2.84,0,0,1,.8.5H23l.16-.58h1.73v3.86a1,1,0,0,0,.22.68.63.63,0,0,0,.52.26.87.87,0,0,0,.82-.43,2.84,2.84,0,0,0,.26-1.4A3.92,3.92,0,0,0,26.48,64a4.66,4.66,0,0,0-.81-1.37,3.91,3.91,0,0,0-1.55-1.09,6,6,0,0,0-2.32-.42,4.88,4.88,0,0,0-3.63,1.34,4.48,4.48,0,0,0-1.32,3.28A4.9,4.9,0,0,0,18,69.19a4.52,4.52,0,0,0,3.48,1.23h2.72v2.23Zm.16-5.28a1.34,1.34,0,0,0,.93-.36A1.61,1.61,0,0,0,23,65.8a1.57,1.57,0,0,0-.39-1.2,1.34,1.34,0,0,0-.93-.36,1.24,1.24,0,0,0-.95.39,1.71,1.71,0,0,0-.37,1.17A1.67,1.67,0,0,0,20.68,67,1.21,1.21,0,0,0,21.63,67.37Z"/><path d="M31.75,70.75l-2.31-8.91h3.13l1.12,5.28L35,61.84h2.72l1.36,5.28,1.12-5.28h3.13l-2.31,8.91h-3.3L36.4,66.13,35,70.75Z"/><path d="M47.84,70.91a6.16,6.16,0,0,1-2-.3,3,3,0,0,1-1.32-.81,3.49,3.49,0,0,1-.68-1,3.41,3.41,0,0,1-.26-1.08h3a.92.92,0,0,0,.42.59,1.59,1.59,0,0,0,.9.23q1.32,0,1.32-.57,0-.27-.39-.42a3.86,3.86,0,0,0-1-.19,7.83,7.83,0,0,1-1.27-.19,8.2,8.2,0,0,1-1.27-.41,2.2,2.2,0,0,1-1-.82,2.52,2.52,0,0,1-.39-1.44,2.41,2.41,0,0,1,1-2,4.87,4.87,0,0,1,2.92-.77,6.4,6.4,0,0,1,2,.27,3.2,3.2,0,0,1,1.29.74,3.1,3.1,0,0,1,.69,1,3.07,3.07,0,0,1,.27,1.07h-3a.56.56,0,0,0-.29-.47,1.56,1.56,0,0,0-.87-.19c-.66,0-1,.17-1,.5s.18.32.54.4.79.16,1.29.22a10.41,10.41,0,0,1,1.53.32A2.48,2.48,0,0,1,52.13,68a2.53,2.53,0,0,1-.17.91,3.27,3.27,0,0,1-.6.92,2.94,2.94,0,0,1-1.33.77A7.33,7.33,0,0,1,47.84,70.91Z"/><path d="M56.07,60.76a1.69,1.69,0,0,1-1.22.43,1.66,1.66,0,0,1-1.22-.43,1.73,1.73,0,0,1,0-2.28,1.66,1.66,0,0,1,1.22-.43,1.69,1.69,0,0,1,1.22.43,1.73,1.73,0,0,1,0,2.28Zm-2.71,10V61.84h3v8.91Z"/><path d="M61.92,70.75a3.5,3.5,0,0,1-2.42-.68A2.82,2.82,0,0,1,58.79,68V64.57h-1.4V61.84h1.4l.49-2.3h2.48v2.3h2.06v2.73H61.76v2.8a.76.76,0,0,0,.18.53.59.59,0,0,0,.47.21h1.41v2.64Z"/><path d="M68.48,70.75a3.47,3.47,0,0,1-2.41-.68A2.79,2.79,0,0,1,65.35,68V59.21h3v8.16a.81.81,0,0,0,.18.53.6.6,0,0,0,.48.21h1.4v2.64Z"/></svg>