<svg xmlns="http://www.w3.org/2000/svg" viewBox="0 0 532.22 81.04"><defs><style>.a{fill:#ed1c29;}</style></defs><path class="a" d="M127.81,23.52A4.82,4.82,0,1,0,126,18.87l-30.56,1.4A5.22,5.22,0,0,0,87,17.59L71,5.18a3.59,3.59,0,0,0,.27-1.39A3.79,3.79,0,1,0,65,6.66L57.35,23.48a6.17,6.17,0,0,0-6.54,2.27l-19.42-10A5.86,5.86,0,0,0,31.65,14a5.94,5.94,0,1,0-1.23,3.61l19.41,10a6.23,6.23,0,0,0,.87,5.5L39.53,44.36a9.3,9.3,0,0,0-5.83-2,9.41,9.41,0,0,0-8.19,4.78L9.66,40.38a5.26,5.26,0,0,0,.08-.89,4.86,4.86,0,1,0-.9,2.83L24.69,49a9.15,9.15,0,0,0-.4,2.68,9.37,9.37,0,0,0,3.17,7l-8,11.37a3.8,3.8,0,1,0,1.73,1.22l8-11.37a9.37,9.37,0,0,0,11.54-2l9.43,6.64a6.12,6.12,0,0,0-.61,2.67,6.24,6.24,0,1,0,12.47,0,4.41,4.41,0,0,0,0-.52L83.4,61.18a7.61,7.61,0,0,0,12,2.91l9.34,8.37a4.35,4.35,0,0,0-.52,2.07,4.41,4.41,0,1,0,4.41-4.41,4.31,4.31,0,0,0-2.48.77l-9.34-8.37a7.62,7.62,0,0,0-5.29-11.81l0-24A5.22,5.22,0,0,0,94.33,25l18,10.21,15,21.53a2.75,2.75,0,0,0-.46,1.52,2.8,2.8,0,1,0,2.8-2.8,2.49,2.49,0,0,0-.61.08L114.43,34.61Zm-60.92-16a3.29,3.29,0,0,0,.54,0,3.79,3.79,0,0,0,2.23-.73l16,12.4a5.13,5.13,0,0,0-.54,2.31,5.24,5.24,0,0,0,4.19,5.13l0,24a7.65,7.65,0,0,0-4.07,1.92l-24.13-20A6.31,6.31,0,0,0,62,29.51a6.23,6.23,0,0,0-2.74-5.17ZM61.46,64.71a6.24,6.24,0,0,0-10.1-1.84l-9.42-6.63A9.39,9.39,0,0,0,41,45.84L52.19,34.6a6.22,6.22,0,0,0,7.64-.36L84,54.25a7.62,7.62,0,0,0-1.14,4,8.49,8.49,0,0,0,.05.88ZM95.37,23.17a4.92,4.92,0,0,0,.19-.8L126.12,21a4.47,4.47,0,0,0,.35.92L112.9,33.14Z"/><path d="M169.9,22a3.26,3.26,0,0,1-2.48-1,3.93,3.93,0,0,1-.92-2.79,4,4,0,0,1,.92-2.79,3.25,3.25,0,0,1,2.48-1,3.16,3.16,0,0,1,2,.59,3.23,3.23,0,0,1,1.1,1.65h-1.36a1.76,1.76,0,0,0-1.73-1.09,1.86,1.86,0,0,0-1.52.67,2.93,2.93,0,0,0-.57,1.94,2.93,2.93,0,0,0,.57,1.94,1.86,1.86,0,0,0,1.52.67,1.76,1.76,0,0,0,1.73-1.09H173a3.23,3.23,0,0,1-1.1,1.65A3.16,3.16,0,0,1,169.9,22Z"/><path d="M174.1,21.91V14.59h5.8v7.32h-1.3V15.74h-3.19v6.17Z"/><path d="M181.48,21.91V14.59h4.81v1.15h-3.5v1.94h3.29v1.09h-3.29v2h3.61v1.15Z"/><path d="M193.16,23.43V21.91h-5.49V14.59H189v6.17h3.19V14.59h1.3v6.17h.89v2.67Z"/><path d="M195.42,21.91V14.59h1.31v5.54h.05l3.14-5.54h1.73v7.32h-1.31V16.37h-.05l-3.14,5.54Z"/><path d="M202.54,21.91l2.67-7.32h1.62l2.67,7.32h-1.36l-.57-1.57h-3.1l-.57,1.57Zm2.33-2.72h2.3l-1.12-3.13H206Z"/><path d="M210,22V20.73h.11a.86.86,0,0,0,.67-.26,1.87,1.87,0,0,0,.36-.94,12.12,12.12,0,0,0,.12-2v-3h5v7.32H215V15.74h-2.4v1.94a7.72,7.72,0,0,1-.52,3.34,2,2,0,0,1-1.94,1Z"/><path d="M217.89,21.91V14.59h1.31v5.54h.05l3.14-5.54h1.72v7.32h-1.3V16.37h-.06l-3.13,5.54Z"/><path d="M228,22a3.22,3.22,0,0,1-2-.58,2.09,2.09,0,0,1-.83-1.62h1.3a1,1,0,0,0,.5.78,1.84,1.84,0,0,0,1,.26,2,2,0,0,0,1.14-.27.91.91,0,0,0,.38-.77c0-.66-.51-1-1.52-1h-.68V17.68H228a1.72,1.72,0,0,0,1.06-.27.88.88,0,0,0,.35-.73.9.9,0,0,0-.37-.76,1.71,1.71,0,0,0-1-.28,1.61,1.61,0,0,0-.95.27,1.09,1.09,0,0,0-.46.77h-1.31a2.29,2.29,0,0,1,.83-1.62,2.92,2.92,0,0,1,1.89-.57,3.14,3.14,0,0,1,2,.57,1.87,1.87,0,0,1,.7,1.52,1.74,1.74,0,0,1-.3,1,1.62,1.62,0,0,1-.8.59,1.89,1.89,0,0,1,.87.65,1.73,1.73,0,0,1,.33,1.07,1.83,1.83,0,0,1-.73,1.5A3.21,3.21,0,0,1,228,22Z"/><path d="M232.13,21.91V14.59h1.31v5.54h.05l3.14-5.54h1.73v7.32h-1.31V16.37H237l-3.14,5.54Z"/><path d="M239.93,21.91V14.59h2.94a2.49,2.49,0,0,1,1.79.68,2.46,2.46,0,0,1,0,3.46,2.49,2.49,0,0,1-1.79.67h-1.63v2.51Zm1.31-3.66h1.51a1.34,1.34,0,0,0,1-.33,1.43,1.43,0,0,0,0-1.85,1.34,1.34,0,0,0-1-.33h-1.51Z"/><path d="M252.23,21a3.58,3.58,0,0,1-5,0,3.92,3.92,0,0,1-.92-2.77,3.94,3.94,0,0,1,.92-2.77,3.6,3.6,0,0,1,5,0,3.94,3.94,0,0,1,.92,2.77A3.92,3.92,0,0,1,252.23,21Zm-4-.83a2.08,2.08,0,0,0,3.06,0,3,3,0,0,0,.56-1.94,3,3,0,0,0-.56-1.94,2.08,2.08,0,0,0-3.06,0,3,3,0,0,0-.56,1.94A3,3,0,0,0,248.22,20.19Z"/><path d="M254.38,21.91V14.59h3.35a2.26,2.26,0,0,1,1.62.55,2,2,0,0,1,.57,1.49A1.74,1.74,0,0,1,259,18.2a1.72,1.72,0,0,1,.75.64,1.76,1.76,0,0,1,.3,1,2,2,0,0,1-.58,1.5,2.26,2.26,0,0,1-1.62.54Zm1.31-4.18h1.88a1,1,0,0,0,.76-.27,1.05,1.05,0,0,0,0-1.45,1,1,0,0,0-.76-.27h-1.88Zm0,3h2a1.09,1.09,0,0,0,.77-.26,1.09,1.09,0,0,0,0-1.46,1,1,0,0,0-.77-.27h-2Z"/><path d="M260.52,21.91l2.67-7.32h1.62l2.67,7.32h-1.36l-.57-1.57h-3.1l-.57,1.57Zm2.34-2.72h2.29L264,16.06H264Z"/><path d="M268.37,21.91V14.59h1.31v3H273v-3h1.31v7.32H273V18.77h-3.29v3.14Z"/><path d="M275.86,21.91V14.59h1.31v3h3.29v-3h1.31v7.32h-1.31V18.77h-3.29v3.14Z"/><path d="M283.35,21.91V14.59h1.3v2.62h1.53a2.5,2.5,0,0,1,1.81.66,2.41,2.41,0,0,1,0,3.38,2.53,2.53,0,0,1-1.82.66Zm1.3-1.15h1.42a1.37,1.37,0,0,0,.94-.34,1.16,1.16,0,0,0,.36-.86,1.15,1.15,0,0,0-.36-.86,1.33,1.33,0,0,0-.94-.34h-1.42Zm4.81,1.15V14.59h1.31v7.32Z"/><path d="M292.34,21.91V14.59h1.31v5.54h.05l3.14-5.54h1.73v7.32h-1.31V16.37h-.05l-3.14,5.54Zm4.32-8.38a1.85,1.85,0,0,1-1.18.38,1.81,1.81,0,0,1-1.17-.38,1.52,1.52,0,0,1-.55-1.13h.94a.79.79,0,0,0,1.57,0h.94A1.59,1.59,0,0,1,296.66,13.53Z"/><path d="M307.92,23.43V21.91h-5.49V14.59h1.31v6.17h3.19V14.59h1.31v6.17h.89v2.67Z"/><path d="M310.19,21.91V14.59H315v1.15h-3.5v1.94h3.29v1.09H311.5v2h3.6v1.15Z"/><path d="M316.38,21.91V14.59h1.3v3H321v-3h1.3v7.32H321V18.77h-3.3v3.14Z"/><path d="M325.57,21.91V15.74h-2.25V14.59h5.8v1.15h-2.24v6.17Z"/><path d="M330.16,21.91V14.59h2.94a2.49,2.49,0,0,1,1.79.68,2.46,2.46,0,0,1,0,3.46,2.49,2.49,0,0,1-1.79.67h-1.63v2.51Zm1.31-3.66H333a1.34,1.34,0,0,0,1-.33,1.43,1.43,0,0,0,0-1.85,1.34,1.34,0,0,0-1-.33h-1.51Z"/><path d="M339.15,21.91V14.59h1.31v3.35l2.86-3.35h1.53l-3.08,3.61L345,21.91h-1.52l-3-3.45v3.45Z"/><path d="M350.81,21a3.58,3.58,0,0,1-5,0,3.92,3.92,0,0,1-.92-2.77,3.94,3.94,0,0,1,.92-2.77,3.6,3.6,0,0,1,5,0,3.94,3.94,0,0,1,.92,2.77A3.92,3.92,0,0,1,350.81,21Zm-4-.83a2.08,2.08,0,0,0,3.06,0,3,3,0,0,0,.56-1.94,3,3,0,0,0-.56-1.94,2.08,2.08,0,0,0-3.06,0,3,3,0,0,0-.56,1.94A3,3,0,0,0,346.8,20.19Z"/><path d="M353,21.91V14.59h1.94L356.83,20h.05l1.94-5.44h1.93v7.32h-1.31V16.32h-.05l-2,5.59h-1.1l-2-5.59h-.05v5.59Z"/><path d="M362.33,21.91V14.59h5.8v7.32h-1.3V15.74h-3.19v6.17Z"/><path d="M369.71,21.91V14.59h4.81v1.15H371v1.94h3.29v1.09H371v2h3.6v1.15Z"/><path d="M377.72,21.91V15.74h-2.25V14.59h5.8v1.15H379v6.17Z"/><path d="M382.31,21.91V14.59h4.81v1.15h-3.5v1.94h3.29v1.09h-3.29v2h3.6v1.15Z"/><path d="M388.5,21.91V14.59h1.3v3h3.3v-3h1.31v7.32H393.1V18.77h-3.3v3.14Z"/><path d="M401.47,23.43V21.91H396V14.59h1.31v6.17h3.19V14.59h1.31v6.17h.89v2.67Z"/><path d="M403.74,21.91V14.59h1.31v5.54h.05l3.14-5.54H410v7.32h-1.31V16.37h0l-3.14,5.54Z"/><path d="M411.53,21.91V14.59h1.31v5.54h.05L416,14.59h1.73v7.32h-1.31V16.37h-.05l-3.14,5.54Zm4.32-8.38a1.85,1.85,0,0,1-1.18.38,1.81,1.81,0,0,1-1.17-.38A1.52,1.52,0,0,1,413,12.4h.94a.7.7,0,0,0,.78.68.7.7,0,0,0,.79-.68h.94A1.59,1.59,0,0,1,415.85,13.53Z"/><path d="M166,48.68V28.46h6.35l4.77,14h.14l4.77-14h6.36V48.68H184V34.38h-.14L179,48.68h-3.61l-4.91-14.3h-.15v14.3Z"/><path d="M204.18,46.88a8.3,8.3,0,0,1-11,0,8.12,8.12,0,0,1-2-5.85,8.08,8.08,0,0,1,2-5.85,8.27,8.27,0,0,1,11,0,8.12,8.12,0,0,1,2,5.85A8.15,8.15,0,0,1,204.18,46.88Zm-8-2.6a3.2,3.2,0,0,0,2.48,1.08,3.23,3.23,0,0,0,2.49-1.08,4.73,4.73,0,0,0,1-3.25,4.71,4.71,0,0,0-1-3.25,3.24,3.24,0,0,0-2.49-1.09,3.21,3.21,0,0,0-2.48,1.09,4.71,4.71,0,0,0-1,3.25A4.73,4.73,0,0,0,196.19,44.28Z"/><path d="M207.53,49v-4H208a1.68,1.68,0,0,0,1.76-1.17,16.1,16.1,0,0,0,.4-4.46V33.37h12.14V48.68h-4.05V37.13h-4v2.74c0,1.12-.05,2.1-.13,3a13.78,13.78,0,0,1-.49,2.48,5.9,5.9,0,0,1-1,2A4.37,4.37,0,0,1,211,48.51a5.84,5.84,0,0,1-2.42.46Z"/><path d="M238,46.88a8.3,8.3,0,0,1-11,0A8.11,8.11,0,0,1,225,41a8.08,8.08,0,0,1,2-5.85,8.27,8.27,0,0,1,11,0A8.08,8.08,0,0,1,240,41,8.12,8.12,0,0,1,238,46.88Zm-8-2.6a3.4,3.4,0,0,0,5,0,4.68,4.68,0,0,0,1-3.25,4.66,4.66,0,0,0-1-3.25,3.38,3.38,0,0,0-5,0A4.71,4.71,0,0,0,229,41,4.73,4.73,0,0,0,230,44.28Z"/><path d="M241.27,52.15V44.93h1.44a6.73,6.73,0,0,0,.88-2.1,14.81,14.81,0,0,0,.28-3.25V33.37H256V44.93h1.88v7.22H254V48.68h-8.81v3.47Zm5.34-7.22H252v-7.8h-4v2.45A10.57,10.57,0,0,1,246.61,44.93Z"/><path d="M260.32,48.68V33.37h4v4.77h2.89a5.29,5.29,0,0,1,3.86,1.46,5,5,0,0,1,1.49,3.74,5.08,5.08,0,0,1-5.35,5.34Zm4-3.61h2.31c1.26,0,1.88-.58,1.88-1.73a1.45,1.45,0,0,0-.5-1.17,2.11,2.11,0,0,0-1.38-.42h-2.31ZM274,48.68V33.37h4V48.68Z"/><path d="M288.28,49a7.28,7.28,0,0,1-5.5-2.09,8.12,8.12,0,0,1-2-5.85,8.08,8.08,0,0,1,2-5.85,7.25,7.25,0,0,1,5.5-2.1,7,7,0,0,1,5.34,2.14,7.72,7.72,0,0,1,2,5.52l-.15,1.59H285c.35,2,1.45,3,3.32,3A3.24,3.24,0,0,0,290,45,3.48,3.48,0,0,0,291,43.92h4.33A7.06,7.06,0,0,1,293,47.54,7.21,7.21,0,0,1,288.28,49ZM285,39.3h6.5a3.4,3.4,0,0,0-1.06-1.85,3,3,0,0,0-2.12-.76A3.23,3.23,0,0,0,285,39.3Z"/><path d="M305,48.68V33.37h13.57V48.68h-4V37.13h-5.49V48.68Z"/><path d="M322.05,54.46V33.37h3.46l.44,1.74h.14a5.48,5.48,0,0,1,4.33-2,6.12,6.12,0,0,1,4.83,2.07A8.64,8.64,0,0,1,337.07,41a8.64,8.64,0,0,1-1.82,5.88A6.14,6.14,0,0,1,330.42,49a5,5,0,0,1-4.18-1.88h-.15v7.37Zm5-10.18a3.23,3.23,0,0,0,2.49,1.08A3.2,3.2,0,0,0,332,44.28,4.68,4.68,0,0,0,333,41a4.66,4.66,0,0,0-1-3.25,3.21,3.21,0,0,0-2.48-1.09,3.24,3.24,0,0,0-2.49,1.09,4.71,4.71,0,0,0-1,3.25A4.73,4.73,0,0,0,327.07,44.28Z"/><path d="M352.09,46.88a8.28,8.28,0,0,1-11,0,8.12,8.12,0,0,1-2-5.85,8.08,8.08,0,0,1,2-5.85,8.25,8.25,0,0,1,11,0,8.08,8.08,0,0,1,2,5.85A8.12,8.12,0,0,1,352.09,46.88Zm-8-2.6a3.2,3.2,0,0,0,2.48,1.08,3.23,3.23,0,0,0,2.49-1.08,4.73,4.73,0,0,0,1-3.25,4.71,4.71,0,0,0-1-3.25,3.24,3.24,0,0,0-2.49-1.09,3.21,3.21,0,0,0-2.48,1.09,4.66,4.66,0,0,0-1,3.25A4.68,4.68,0,0,0,344.11,44.28Z"/><path d="M364,54.46V48.68a8,8,0,0,1-5.77-2.09A7.37,7.37,0,0,1,356,41a7.36,7.36,0,0,1,2.18-5.56,8,8,0,0,1,5.77-2.1V27.89h4v5.48a7.94,7.94,0,0,1,5.76,2.1A7.32,7.32,0,0,1,376,41a7.34,7.34,0,0,1-2.18,5.56A8,8,0,0,1,368,48.68v5.78Zm0-9.39V37a3.74,3.74,0,0,0-2.86,1.1,4.09,4.09,0,0,0-1,3,4.06,4.06,0,0,0,1,2.94A3.71,3.71,0,0,0,364,45.07Zm4,0a3.72,3.72,0,0,0,2.86-1.1,4.69,4.69,0,0,0,0-5.89A3.76,3.76,0,0,0,368,37Z"/><path d="M385.4,49a7.28,7.28,0,0,1-5.5-2.09,8.12,8.12,0,0,1-2-5.85,8.08,8.08,0,0,1,2-5.85,7.25,7.25,0,0,1,5.5-2.1,7,7,0,0,1,5.35,2.14,7.76,7.76,0,0,1,2,5.52l-.15,1.59H382.08q.53,3,3.32,3a3.24,3.24,0,0,0,1.68-.35,3.48,3.48,0,0,0,1.07-1.09h4.33a6.94,6.94,0,0,1-2.34,3.62A7.17,7.17,0,0,1,385.4,49Zm-3.32-9.67h6.5a3.32,3.32,0,0,0-1.05-1.85,3.05,3.05,0,0,0-2.13-.76A3.23,3.23,0,0,0,382.08,39.3Z"/><path d="M402.28,49a7.26,7.26,0,0,1-5.5-2.09,8.12,8.12,0,0,1-2-5.85,8.08,8.08,0,0,1,2-5.85,7.23,7.23,0,0,1,5.5-2.1A6.91,6.91,0,0,1,407,34.62a7.65,7.65,0,0,1,2.33,4h-4.05a3.38,3.38,0,0,0-5.54-.76,4.78,4.78,0,0,0-1,3.22,4.8,4.8,0,0,0,1,3.22,3.39,3.39,0,0,0,5.54-.77h4.05a7.64,7.64,0,0,1-2.33,4A6.9,6.9,0,0,1,402.28,49Z"/><path d="M418.73,49a7.28,7.28,0,0,1-5.5-2.09,8.12,8.12,0,0,1-2-5.85,8.08,8.08,0,0,1,2-5.85,7.25,7.25,0,0,1,5.5-2.1,6.92,6.92,0,0,1,4.76,1.54,7.64,7.64,0,0,1,2.32,4h-4a3.39,3.39,0,0,0-5.55-.76,4.83,4.83,0,0,0-1,3.22,4.85,4.85,0,0,0,1,3.22,3.4,3.4,0,0,0,5.55-.77h4a7.63,7.63,0,0,1-2.32,4A6.91,6.91,0,0,1,418.73,49Z"/><path d="M428.27,48.68V33.37h4.05v9.25h.14L438,33.37h4.48V48.68h-4.05V39.3h-.14l-5.49,9.38Z"/><path d="M458.13,46.88a8.3,8.3,0,0,1-11,0,8.12,8.12,0,0,1-2-5.85,8.08,8.08,0,0,1,2-5.85,8.27,8.27,0,0,1,11,0,8.12,8.12,0,0,1,2,5.85A8.15,8.15,0,0,1,458.13,46.88Zm-8-2.6a3.2,3.2,0,0,0,2.48,1.08,3.23,3.23,0,0,0,2.49-1.08,4.73,4.73,0,0,0,1-3.25,4.71,4.71,0,0,0-1-3.25,3.24,3.24,0,0,0-2.49-1.09,3.21,3.21,0,0,0-2.48,1.09,4.71,4.71,0,0,0-1,3.25A4.73,4.73,0,0,0,450.14,44.28Z"/><path d="M462.82,48.68V33.37h4.05v5.78h5.48V33.37h4V48.68h-4V42.91h-5.48v5.77Z"/><path d="M485.79,49A6.13,6.13,0,0,1,481,46.91,8.64,8.64,0,0,1,479.14,41,8.64,8.64,0,0,1,481,35.15a6.11,6.11,0,0,1,4.83-2.07,5.48,5.48,0,0,1,4.33,2h.14l.44-1.74h3.46V48.68H490.7L490.26,47h-.14A5.47,5.47,0,0,1,485.79,49Zm-1.62-4.69a3.2,3.2,0,0,0,2.48,1.08,3.23,3.23,0,0,0,2.49-1.08,4.73,4.73,0,0,0,1-3.25,4.71,4.71,0,0,0-1-3.25,3.24,3.24,0,0,0-2.49-1.09,3.21,3.21,0,0,0-2.48,1.09,4.66,4.66,0,0,0-1,3.25A4.68,4.68,0,0,0,484.17,44.28Z"/><path d="M496.29,49v-4h.43a1.68,1.68,0,0,0,1.76-1.17,16.1,16.1,0,0,0,.4-4.46V33.37H511V48.68h-4V37.13h-4v2.74a28.44,28.44,0,0,1-.13,3,13.78,13.78,0,0,1-.49,2.48,5.9,5.9,0,0,1-1,2,4.29,4.29,0,0,1-1.63,1.23,5.82,5.82,0,0,1-2.41.46Z"/><path d="M514.45,48.68V33.37h4v4.77h2.88a5.29,5.29,0,0,1,3.86,1.46,5,5,0,0,1,1.49,3.74,5.08,5.08,0,0,1-5.35,5.34Zm4-3.61h2.31c1.25,0,1.87-.58,1.87-1.73a1.42,1.42,0,0,0-.5-1.17,2.1,2.1,0,0,0-1.37-.42H518.5Zm9.67,3.61V33.37h4.05V48.68Z"/><path d="M166,77.57V57.35h4.33V77.57Z"/><path d="M178.57,77.57V61.25h-6.06v-3.9H189v3.9H182.9V77.57Z"/><path d="M188.48,71.21V67.6h9.39v3.61Z"/><path d="M199,77.86v-4h.43a1.68,1.68,0,0,0,1.77-1.17,16.06,16.06,0,0,0,.4-4.46V62.26h12.13V77.57h-4V66h-4v2.74a28.44,28.44,0,0,1-.13,2.95,13.12,13.12,0,0,1-.49,2.48,5.9,5.9,0,0,1-1,2,4.33,4.33,0,0,1-1.64,1.23,5.92,5.92,0,0,1-2.41.46Z"/><path d="M217.12,77.57V62.26h4V71.5h.15l5.48-9.24h4.48V77.57h-4V68.18h-.15l-5.48,9.39Z"/><path d="M246.1,81V77.57H234.69V62.26h4.05V73.81h5.34V62.26h4V73.81H250V81Z"/><path d="M259,77.86a7.27,7.27,0,0,1-5.51-2.1,8.08,8.08,0,0,1-2-5.85,8.11,8.11,0,0,1,2-5.85A7.3,7.3,0,0,1,259,62a7,7,0,0,1,5.34,2.14,7.68,7.68,0,0,1,2,5.52l-.14,1.58H255.69q.53,3,3.33,3a3.27,3.27,0,0,0,1.67-.35,3.42,3.42,0,0,0,1.07-1.1h4.33a7,7,0,0,1-2.34,3.63A7.22,7.22,0,0,1,259,77.86Zm-3.33-9.68h6.5a3.36,3.36,0,0,0-1.05-1.85,3,3,0,0,0-2.12-.75A3.24,3.24,0,0,0,255.69,68.18Z"/><path d="M267.86,77.57l3.52-5.49a4.71,4.71,0,0,1-2.15-1.79,5.54,5.54,0,0,1,.68-6.61,5.32,5.32,0,0,1,3.87-1.42h7.51V77.57h-4v-5h-1.59l-3.18,5Zm6.35-8.67h3v-3h-3c-1.15,0-1.73.53-1.73,1.59S273.06,68.9,274.21,68.9Z"/><path d="M291.69,77.57V57.35H296V66.3l7.23-8.95h5.05l-8.09,10,8.52,10.26h-5.05L296,68.33v9.24Z"/><path d="M316.71,77.86V75.55a9.61,9.61,0,0,1-6.75-2.3,8.29,8.29,0,0,1,0-11.87,9.61,9.61,0,0,1,6.75-2.3v-2H321v2a9.61,9.61,0,0,1,6.75,2.3,8.32,8.32,0,0,1,0,11.87,9.61,9.61,0,0,1-6.75,2.3v2.31Zm0-6.07v-9a5.13,5.13,0,0,0-3.63,1.2,4.83,4.83,0,0,0,0,6.55A5.13,5.13,0,0,0,316.71,71.79Zm4.33,0a5.13,5.13,0,0,0,3.63-1.2,4.83,4.83,0,0,0,0-6.55,5.13,5.13,0,0,0-3.63-1.2Z"/><path d="M334.38,77.57l2.31-5.34-6.93-14.88h4.62L338.86,67H339l4.05-9.68h4.47l-8.66,20.22Z"/></svg>