<svg xmlns="http://www.w3.org/2000/svg" viewBox="0 0 57.49 11.34"><defs><style>.a{fill:#221f1f;}.b,.d{fill:#0062a2;}.c{fill:#f38030;}.d,.e{fill-rule:evenodd;}.e{fill:#fff;}</style></defs><path class="a" d="M41.07,2.78a.68.68,0,0,1-.3.12,1.75,1.75,0,0,1-.4,0,1.19,1.19,0,0,1-.47-.09.93.93,0,0,1-.39-.26,1.4,1.4,0,0,1-.26-.45,2.06,2.06,0,0,1-.1-.65,1.84,1.84,0,0,1,.11-.67,1.24,1.24,0,0,1,.28-.45,1.21,1.21,0,0,1,.39-.26A1.42,1.42,0,0,1,40.38,0a2.06,2.06,0,0,1,.39,0A1.38,1.38,0,0,1,41,.13L41,.43a1.17,1.17,0,0,0-.55-.1,1,1,0,0,0-.33.06.76.76,0,0,0-.28.2,1.09,1.09,0,0,0-.21.35,1.75,1.75,0,0,0-.07.55,1.51,1.51,0,0,0,.07.5.89.89,0,0,0,.2.36.73.73,0,0,0,.3.22.87.87,0,0,0,.37.07,1.42,1.42,0,0,0,.31,0,1,1,0,0,0,.23-.1Z"/><path class="a" d="M42.25,1.56l.1.36h0l.08-.37L43,.08h.34l-.71,1.83a5,5,0,0,1-.19.47,1.27,1.27,0,0,1-.17.31.45.45,0,0,1-.41.22.62.62,0,0,1-.21,0,.35.35,0,0,1-.15-.07l.1-.27a.3.3,0,0,0,.15.05l.12,0a.22.22,0,0,0,.19-.12,1,1,0,0,0,.13-.34l-1-2.08h.39Z"/><path class="a" d="M45.36,1.6H44V2.89h-.33V.08H44V1.31h1.35V.08h.33V2.89h-.33Z"/><path class="a" d="M48.68,3.41h-.23l-.06-.52h-2V.08h.33V2.6H48V.08h.33V2.6h.37Z"/><path class="a" d="M50.73,1.59h-.19v1.3h-.33V.08h.33V1.39l.18-.06,1-1.25h.38l-.94,1.21L51,1.42l.2.16,1,1.31h-.42Z"/><path class="a" d="M53.64,2.58l-.16,0h-.17A1,1,0,0,1,53,2.54a.68.68,0,0,1-.29-.21,1,1,0,0,1-.2-.34,1.83,1.83,0,0,1-.07-.5A1.75,1.75,0,0,1,52.47,1a1.31,1.31,0,0,1,.2-.37,1,1,0,0,1,.72-.3h.13l.12,0V0H54V.36a.84.84,0,0,1,.18,0h.16a.86.86,0,0,1,.36.07A.83.83,0,0,1,55,.61a.91.91,0,0,1,.19.35,1.45,1.45,0,0,1,.07.49,1.31,1.31,0,0,1-.08.5,1.07,1.07,0,0,1-.21.36.84.84,0,0,1-.31.22.9.9,0,0,1-.37.07H54.1l-.13,0V3h-.33Zm-.27-.26h.21l.06,0V.63l-.11,0H53.4a.75.75,0,0,0-.26.05.79.79,0,0,0-.2.17.69.69,0,0,0-.14.27,1.48,1.48,0,0,0,0,.39,1.22,1.22,0,0,0,0,.34.75.75,0,0,0,.13.27.53.53,0,0,0,.2.16A.51.51,0,0,0,53.37,2.32ZM54.26.61h-.15L54,.64V2.31h.24a.7.7,0,0,0,.25,0,.65.65,0,0,0,.21-.16.82.82,0,0,0,.14-.28,1.12,1.12,0,0,0,.06-.38,1.16,1.16,0,0,0,0-.34A.56.56,0,0,0,54.7.84a.44.44,0,0,0-.19-.17A.51.51,0,0,0,54.26.61Z"/><path class="a" d="M56.4,1.56l.11.36h0l.08-.37L57.14.08h.35l-.72,1.83a5,5,0,0,1-.19.47,1.76,1.76,0,0,1-.16.31.56.56,0,0,1-.18.17.47.47,0,0,1-.24.05.62.62,0,0,1-.21,0,.51.51,0,0,1-.15-.07l.1-.27a.37.37,0,0,0,.15.05l.13,0a.21.21,0,0,0,.18-.12,1.24,1.24,0,0,0,.14-.34L55.3.08h.38Z"/><path class="a" d="M39.35,4h.33V6.78h-.33Z"/><path class="a" d="M42.26,4.27h-.88V6.78h-.33V4.27h-.88V4h2.09Z"/><path class="a" d="M42.23,5.47h1v.3h-1Z"/><path class="a" d="M44.69,5.05h-.58l0,.37c0,.13,0,.26,0,.39s0,.25-.07.37a1.5,1.5,0,0,1-.1.32.57.57,0,0,1-.15.21.29.29,0,0,1-.22.09h-.13l-.1,0,0-.27.1,0a.23.23,0,0,0,.15-.07.64.64,0,0,0,.11-.26,3.79,3.79,0,0,0,.08-.53c0-.22,0-.52,0-.88H45v2h-.32Z"/><path class="a" d="M46.88,5.59l0-.25h0l-.16.26-.9,1.18h-.19v-2H46V6.23h0L46.11,6,47,4.77h.19v2h-.33Z"/><path class="a" d="M49.63,7.29h-.22l-.06-.51H47.82v-2h.33V6.5H49V4.77h.32V6.5h.29Z"/><path class="a" d="M51.49,6.62a1.05,1.05,0,0,1-.3.15,1.23,1.23,0,0,1-.39.06,1,1,0,0,1-.4-.08.71.71,0,0,1-.27-.21A.86.86,0,0,1,50,6.21a1.88,1.88,0,0,1-.05-.43A1.2,1.2,0,0,1,50.14,5a.81.81,0,0,1,.66-.27,1.24,1.24,0,0,1,.27,0,.55.55,0,0,1,.24.12.45.45,0,0,1,.18.24.93.93,0,0,1,.07.4c0,.09,0,.19,0,.3H50.25a1.42,1.42,0,0,0,0,.31.7.7,0,0,0,.11.23.59.59,0,0,0,.2.15.94.94,0,0,0,.3,0,1,1,0,0,0,.28,0,.53.53,0,0,0,.2-.11ZM50.8,5a.58.58,0,0,0-.38.13.63.63,0,0,0-.17.42h1a.59.59,0,0,0-.12-.42A.45.45,0,0,0,50.8,5Z"/><path class="a" d="M53.32,5.59V5.34h0l-.17.26-.9,1.18h-.18v-2h.32V6.23h0L52.55,6l.9-1.21h.19v2h-.32ZM52.53,4a.39.39,0,0,0,.14.26.34.34,0,0,0,.22.07.36.36,0,0,0,.23-.08A.36.36,0,0,0,53.26,4L53.5,4a.48.48,0,0,1-.21.36.68.68,0,0,1-.4.12.78.78,0,0,1-.22,0,.46.46,0,0,1-.19-.08.62.62,0,0,1-.14-.14.5.5,0,0,1-.09-.21Z"/><polygon class="b" points="11.36 1.59 11.17 1.59 11.17 2.89 10.84 2.89 10.84 0.08 11.17 0.08 11.17 1.39 11.35 1.33 12.29 0.08 12.68 0.08 11.74 1.29 11.57 1.42 11.78 1.58 12.8 2.89 12.38 2.89 11.36 1.59"/><path class="b" d="M13.77,2.64a.6.6,0,0,0,.2,0l.16-.07a.52.52,0,0,0,.1-.11.27.27,0,0,0,.06-.1V2h-.22l-.25,0-.21,0a.5.5,0,0,0-.14.1.25.25,0,0,0-.05.17.29.29,0,0,0,.1.23.35.35,0,0,0,.25.09M13.2,1A1.28,1.28,0,0,1,13.56.9,1.86,1.86,0,0,1,14,.85a.83.83,0,0,1,.34.06.58.58,0,0,1,.19.15.66.66,0,0,1,.09.19,1.8,1.8,0,0,1,0,.22c0,.16,0,.32,0,.47s0,.3,0,.43a2.44,2.44,0,0,0,0,.28,1.87,1.87,0,0,0,0,.25h-.24l-.08-.28h0a.44.44,0,0,1-.09.11.6.6,0,0,1-.13.09.75.75,0,0,1-.18.08l-.23,0a.59.59,0,0,1-.23,0,.4.4,0,0,1-.19-.11.46.46,0,0,1-.13-.18.6.6,0,0,1-.05-.24.55.55,0,0,1,.08-.29.46.46,0,0,1,.2-.19.87.87,0,0,1,.31-.1,2.5,2.5,0,0,1,.4,0h.22a1.8,1.8,0,0,0,0-.22.43.43,0,0,0-.09-.31.45.45,0,0,0-.32-.09h-.15l-.16,0-.16.05-.13.05Z"/><path class="b" d="M15.4,2V1.74h.28a.32.32,0,0,0,.14,0A.52.52,0,0,0,16,1.65a.41.41,0,0,0,.09-.1.28.28,0,0,0,0-.13A.24.24,0,0,0,16,1.2a.72.72,0,0,0-.33-.06.64.64,0,0,0-.28.05l-.21.09L15.06,1a1,1,0,0,1,.28-.12,1.15,1.15,0,0,1,.39-.05c.44,0,.67.16.67.49a.51.51,0,0,1-.09.28.57.57,0,0,1-.26.19h0a.52.52,0,0,1,.33.17.54.54,0,0,1,.09.33.52.52,0,0,1,0,.24.46.46,0,0,1-.16.18.64.64,0,0,1-.26.13,1.32,1.32,0,0,1-.37.05,1,1,0,0,1-.33,0,.92.92,0,0,1-.25-.09l.09-.26a1.23,1.23,0,0,0,.23.08,1.2,1.2,0,0,0,.28,0A.63.63,0,0,0,16,2.56a.27.27,0,0,0,.13-.25A.26.26,0,0,0,16,2.08a.68.68,0,0,0-.4-.08Z"/><path class="b" d="M17.5,2.64a.64.64,0,0,0,.2,0,.52.52,0,0,0,.15-.07L18,2.43a.27.27,0,0,0,.06-.1V2h-.23l-.24,0-.21,0a.39.39,0,0,0-.14.1.25.25,0,0,0-.06.17.33.33,0,0,0,.1.23.37.37,0,0,0,.26.09M16.93,1A1.21,1.21,0,0,1,17.28.9a2,2,0,0,1,.43-.05A.75.75,0,0,1,18,.91a.53.53,0,0,1,.2.15.46.46,0,0,1,.08.19.89.89,0,0,1,0,.22c0,.16,0,.32,0,.47s0,.3,0,.43,0,.2,0,.28a1.84,1.84,0,0,0,.05.25h-.24l-.08-.28h0L18,2.73a.6.6,0,0,1-.13.09.75.75,0,0,1-.18.08l-.23,0a.67.67,0,0,1-.24,0A.52.52,0,0,1,17,2.77a.57.57,0,0,1-.12-.18.47.47,0,0,1-.05-.24.54.54,0,0,1,.07-.29.61.61,0,0,1,.2-.19,1,1,0,0,1,.32-.1,2.41,2.41,0,0,1,.4,0H18a1.7,1.7,0,0,0,0-.22.43.43,0,0,0-.09-.31.42.42,0,0,0-.32-.09h-.14l-.16,0-.16.05L17,1.27Z"/><polygon class="b" points="20.16 2 19.26 2 19.26 2.89 18.93 2.89 18.93 0.89 19.26 0.89 19.26 1.72 20.16 1.72 20.16 0.89 20.48 0.89 20.48 2.89 20.16 2.89 20.16 2"/><path class="b" d="M22.45,2.76a.8.8,0,0,1-.28.13,1.34,1.34,0,0,1-.35,0,.93.93,0,0,1-.39-.08.59.59,0,0,1-.26-.21A.84.84,0,0,1,21,2.32,1.88,1.88,0,0,1,21,1.89a1.19,1.19,0,0,1,.23-.78.78.78,0,0,1,.64-.27,1.55,1.55,0,0,1,.33,0,1.35,1.35,0,0,1,.24.08l-.09.28-.2-.08a1,1,0,0,0-.24,0c-.38,0-.57.25-.57.77a1.36,1.36,0,0,0,0,.29.64.64,0,0,0,.1.24.42.42,0,0,0,.18.17.51.51,0,0,0,.28.07.82.82,0,0,0,.45-.15Z"/><polygon class="b" points="23.38 1.99 23.2 1.99 23.2 2.89 22.88 2.89 22.88 0.89 23.2 0.89 23.2 1.79 23.37 1.74 24.01 0.89 24.36 0.89 23.74 1.69 23.57 1.82 23.78 1.98 24.45 2.89 24.05 2.89 23.38 1.99"/><polygon class="b" points="26.03 1.7 26.04 1.46 26.03 1.46 25.87 1.71 24.96 2.89 24.78 2.89 24.78 0.89 25.1 0.89 25.1 2.11 25.09 2.35 25.1 2.35 25.26 2.1 26.16 0.89 26.35 0.89 26.35 2.89 26.03 2.89 26.03 1.7"/><path class="b" d="M27.41.07a.46.46,0,0,0,.14.26.37.37,0,0,0,.23.07A.39.39,0,0,0,28,.33a.43.43,0,0,0,.13-.25l.25.08a.55.55,0,0,1-.21.35.65.65,0,0,1-.41.13.76.76,0,0,1-.21,0,.56.56,0,0,1-.19-.09.4.4,0,0,1-.15-.14.49.49,0,0,1-.08-.21ZM28.2,1.7l0-.25h0L28,1.71l-.9,1.18H27v-2h.32V2.35h0l.15-.25L28.34.89h.19v2H28.2Z"/><path class="b" d="M11.51,6.49h.2V5l-.09,0h-.1a.44.44,0,0,0-.39.19A1,1,0,0,0,11,5.7,1.48,1.48,0,0,0,11,6a.63.63,0,0,0,.1.25.38.38,0,0,0,.16.17.44.44,0,0,0,.23.06m.68-1.56H12.1L12,5V6.47h.2a.43.43,0,0,0,.39-.22,1.23,1.23,0,0,0,.13-.61,1,1,0,0,0-.12-.53A.46.46,0,0,0,12.19,4.93Zm-.48,1.79-.14,0h-.14a.66.66,0,0,1-.56-.25,1.35,1.35,0,0,1-.2-.8,1.14,1.14,0,0,1,.22-.77.74.74,0,0,1,.62-.26h.2V3.9H12v.79l.13,0h.11a.75.75,0,0,1,.6.23,1.15,1.15,0,0,1,.2.76,1.65,1.65,0,0,1-.06.46.89.89,0,0,1-.16.34.76.76,0,0,1-.25.22.78.78,0,0,1-.35.07h-.1l-.12,0v.79h-.3Z"/><path class="b" d="M14.29,4.93a.58.58,0,0,0-.38.12.69.69,0,0,0-.17.43h1a.61.61,0,0,0-.12-.43.45.45,0,0,0-.33-.12M15,6.54a.86.86,0,0,1-.3.16,1.6,1.6,0,0,1-.39,0,1,1,0,0,1-.4-.07.64.64,0,0,1-.27-.22.73.73,0,0,1-.16-.33,1.4,1.4,0,0,1-.06-.43,1.19,1.19,0,0,1,.23-.78.82.82,0,0,1,.66-.27l.27,0a.66.66,0,0,1,.24.11A.55.55,0,0,1,15,5a1,1,0,0,1,.07.41,1.5,1.5,0,0,1,0,.29H13.74a1.58,1.58,0,0,0,0,.32.63.63,0,0,0,.12.23.45.45,0,0,0,.19.14.94.94,0,0,0,.3,0,1,1,0,0,0,.28,0,.62.62,0,0,0,.2-.11Z"/><path class="b" d="M16.61,6.42V5H16c0,.11,0,.23,0,.37a2.63,2.63,0,0,1-.06.39,3.61,3.61,0,0,1-.08.38,2.33,2.33,0,0,1-.12.3Zm.61.79H17L17,6.7H15.44l-.06.51h-.22V6.42h.24a.76.76,0,0,0,.08-.16,1.21,1.21,0,0,0,.1-.32,2.79,2.79,0,0,0,.09-.51,7,7,0,0,0,.05-.73h1.21V6.42h.29Z"/><path class="b" d="M18.38,4.93a.56.56,0,0,0-.38.12.63.63,0,0,0-.17.43h1a.67.67,0,0,0-.11-.43.45.45,0,0,0-.33-.12m.69,1.61a.82.82,0,0,1-.31.16,1.58,1.58,0,0,1-.38,0,1,1,0,0,1-.4-.07.74.74,0,0,1-.28-.22,1,1,0,0,1-.16-.33,1.81,1.81,0,0,1-.05-.43,1.19,1.19,0,0,1,.23-.78.8.8,0,0,1,.65-.27,1.33,1.33,0,0,1,.28,0,.66.66,0,0,1,.24.11.76.76,0,0,1,.18.24,1.16,1.16,0,0,1,.07.41,1.5,1.5,0,0,1,0,.29H17.82a1.55,1.55,0,0,0,0,.32.61.61,0,0,0,.11.23.48.48,0,0,0,.2.14.84.84,0,0,0,.57,0A.68.68,0,0,0,19,6.31Z"/><path class="b" d="M20.44,4.93a.49.49,0,0,0-.33.11.57.57,0,0,0-.16.32v1a.42.42,0,0,0,.16.09.81.81,0,0,0,.25,0,.5.5,0,0,0,.43-.21.93.93,0,0,0,.17-.6,1.39,1.39,0,0,0,0-.3.69.69,0,0,0-.09-.23A.57.57,0,0,0,20.68,5a.6.6,0,0,0-.24-.05m-.81-.23h.22l.06.24h0a.56.56,0,0,1,.24-.22.74.74,0,0,1,.34-.07.72.72,0,0,1,.59.24,1.19,1.19,0,0,1,.2.77,1.35,1.35,0,0,1-.07.46.92.92,0,0,1-.18.34,1.06,1.06,0,0,1-.29.22,1,1,0,0,1-.38.07.82.82,0,0,1-.24,0L20,6.67v.84h-.32Z"/><path class="b" d="M22.32,6.45a.64.64,0,0,0,.2,0,.52.52,0,0,0,.15-.07l.11-.1.06-.11V5.81h-.47l-.21.05A.42.42,0,0,0,22,6a.3.3,0,0,0,0,.39.37.37,0,0,0,.26.09m-.57-1.6a1,1,0,0,1,.35-.14,2,2,0,0,1,.43,0,.79.79,0,0,1,.33,0,.49.49,0,0,1,.19.15.37.37,0,0,1,.09.2.75.75,0,0,1,0,.21c0,.16,0,.32,0,.47s0,.3,0,.44a2.53,2.53,0,0,0,0,.28.85.85,0,0,0,.05.24H23l-.09-.28h0a.31.31,0,0,1-.09.11.45.45,0,0,1-.13.1l-.17.07a.81.81,0,0,1-.47,0,.62.62,0,0,1-.19-.12.59.59,0,0,1-.13-.18.59.59,0,0,1,0-.23.56.56,0,0,1,.07-.3.52.52,0,0,1,.2-.19,1.25,1.25,0,0,1,.31-.1,2.63,2.63,0,0,1,.41,0h.22a1.7,1.7,0,0,0,0-.22A.44.44,0,0,0,22.76,5,.49.49,0,0,0,22.44,5h-.15l-.16,0L22,5l-.13.06Z"/><path class="b" d="M24.83,5h-.58c0,.11,0,.23,0,.36s0,.26,0,.39l-.06.37a2,2,0,0,1-.11.32.71.71,0,0,1-.15.22.32.32,0,0,1-.21.08h-.14a.19.19,0,0,1-.1,0l0-.27a.2.2,0,0,0,.11,0,.17.17,0,0,0,.14-.07.58.58,0,0,0,.11-.26,3.61,3.61,0,0,0,.08-.52c0-.23,0-.52.05-.88h1.19v2h-.32Z"/><path class="b" d="M26.07,5.46l.19,0h.17a1.2,1.2,0,0,1,.35,0,.68.68,0,0,1,.24.13.5.5,0,0,1,.13.19.85.85,0,0,1,0,.23.63.63,0,0,1-.22.53,1.15,1.15,0,0,1-.68.17l-.54,0v-2h.32Zm0,1,.29,0a.61.61,0,0,0,.37-.1.35.35,0,0,0,.12-.28.33.33,0,0,0-.11-.26.54.54,0,0,0-.37-.11h-.15l-.15,0Z"/><polygon class="b" points="28.83 5.82 27.92 5.82 27.92 6.7 27.6 6.7 27.6 4.7 27.92 4.7 27.92 5.54 28.83 5.54 28.83 4.7 29.15 4.7 29.15 6.7 28.83 6.7 28.83 5.82"/><path class="b" d="M31.46,4.7h.32v2h-.32Zm-1.39.76.18,0h.17a1.2,1.2,0,0,1,.35,0,.67.67,0,0,1,.22.13.62.62,0,0,1,.12.19.85.85,0,0,1,0,.23.65.65,0,0,1-.2.53,1.07,1.07,0,0,1-.66.17l-.53,0v-2h.32Zm0,1,.28,0a.55.55,0,0,0,.36-.1.41.41,0,0,0,.1-.28.36.36,0,0,0-.1-.26.46.46,0,0,0-.34-.11h-.15l-.15,0Z"/><path class="b" d="M32.84,3.89a.37.37,0,0,0,.37.33.35.35,0,0,0,.22-.08.36.36,0,0,0,.14-.25l.24.08a.5.5,0,0,1-.2.35.65.65,0,0,1-.41.13.83.83,0,0,1-.22,0l-.19-.08a.67.67,0,0,1-.14-.15A.49.49,0,0,1,32.57,4Zm.79,1.63V5.27h0l-.16.25L32.56,6.7h-.18v-2h.32V6.16h0l.16-.25.9-1.21H34v2h-.32Z"/><path class="b" d="M11.39,9.81l.12.39h0l.09-.39L12,8.51h.33l-.59,1.8c-.05.13-.09.26-.14.38a1.26,1.26,0,0,1-.15.33.71.71,0,0,1-.18.23.32.32,0,0,1-.23.09.61.61,0,0,1-.24,0l.06-.28a.2.2,0,0,0,.1,0,.29.29,0,0,0,.22-.12,1,1,0,0,0,.17-.4l-.81-2h.37Z"/><polygon class="b" points="13.88 9.63 12.98 9.63 12.98 10.52 12.66 10.52 12.66 8.51 12.98 8.51 12.98 9.35 13.88 9.35 13.88 8.51 14.21 8.51 14.21 10.52 13.88 10.52 13.88 9.63"/><polygon class="b" points="16.06 9.33 16.07 9.08 16.06 9.08 15.89 9.34 14.99 10.52 14.81 10.52 14.81 8.51 15.13 8.51 15.13 9.73 15.12 9.97 15.13 9.97 15.29 9.72 16.19 8.51 16.38 8.51 16.38 10.52 16.06 10.52 16.06 9.33"/><path class="b" d="M17.7,9.36l.14,0L18,9.27l.09-.1a.27.27,0,0,0,0-.12.23.23,0,0,0-.1-.22.54.54,0,0,0-.33-.07H17.3v.58Zm-.4.89h.33a.84.84,0,0,0,.4-.07.29.29,0,0,0,.13-.26.3.3,0,0,0-.11-.24.66.66,0,0,0-.39-.09H17.3ZM17,8.51l.3,0h.38a1.05,1.05,0,0,1,.57.12A.46.46,0,0,1,18.4,9a.56.56,0,0,1-.08.27.51.51,0,0,1-.27.2v0a.44.44,0,0,1,.43.48.49.49,0,0,1-.23.45,1.22,1.22,0,0,1-.67.14h-.31l-.29,0Z"/><path class="b" d="M19.74,8.74a.53.53,0,0,0-.38.13.63.63,0,0,0-.17.42h1a.59.59,0,0,0-.12-.42.42.42,0,0,0-.33-.13m.69,1.62a1.05,1.05,0,0,1-.3.15,1.23,1.23,0,0,1-.39.05,1,1,0,0,1-.4-.07.71.71,0,0,1-.27-.21.85.85,0,0,1-.16-.33,1.51,1.51,0,0,1-.06-.44,1.19,1.19,0,0,1,.23-.78.82.82,0,0,1,.66-.27l.27,0a.55.55,0,0,1,.24.12.45.45,0,0,1,.18.24.9.9,0,0,1,.07.4c0,.09,0,.19,0,.3H19.19a1.48,1.48,0,0,0,0,.31.71.71,0,0,0,.12.23.45.45,0,0,0,.19.14.73.73,0,0,0,.3,0,.9.9,0,0,0,.28,0,.53.53,0,0,0,.2-.12Z"/><path class="b" d="M21.8,8.74a.44.44,0,0,0-.32.11.58.58,0,0,0-.17.32v1l.16.08a.9.9,0,0,0,.25,0,.56.56,0,0,0,.44-.2,1,1,0,0,0,.16-.61,1.39,1.39,0,0,0,0-.3.69.69,0,0,0-.09-.23A.36.36,0,0,0,22,8.8a.43.43,0,0,0-.24-.06M21,8.51h.22l.06.24h0a.66.66,0,0,1,.23-.21.74.74,0,0,1,.34-.08.73.73,0,0,1,.6.24,1.21,1.21,0,0,1,.19.77,1.65,1.65,0,0,1-.06.46,1.11,1.11,0,0,1-.19.34.77.77,0,0,1-.29.22.92.92,0,0,1-.38.07H21.5l-.19-.07v.84H21Z"/><path class="b" d="M24.51,10.38a.82.82,0,0,1-.28.14,1.34,1.34,0,0,1-.35,0,.91.91,0,0,1-.39-.07.71.71,0,0,1-.27-.21,1.05,1.05,0,0,1-.14-.34,1.88,1.88,0,0,1,0-.43,1.25,1.25,0,0,1,.22-.78.8.8,0,0,1,.65-.27,1.55,1.55,0,0,1,.33,0,.85.85,0,0,1,.24.09l-.09.28a.67.67,0,0,0-.21-.09.88.88,0,0,0-.24,0c-.38,0-.57.26-.57.77a1.36,1.36,0,0,0,0,.29.82.82,0,0,0,.1.25.52.52,0,0,0,.19.17.58.58,0,0,0,.28.06.71.71,0,0,0,.26,0,.67.67,0,0,0,.19-.1Z"/><polygon class="b" points="26.19 9.33 26.2 9.08 26.19 9.08 26.02 9.34 25.12 10.52 24.93 10.52 24.93 8.51 25.26 8.51 25.26 9.73 25.24 9.97 25.26 9.97 25.42 9.72 26.32 8.51 26.51 8.51 26.51 10.52 26.19 10.52 26.19 9.33"/><polygon class="b" points="28.39 8.79 27.76 8.79 27.76 10.52 27.44 10.52 27.44 8.79 26.81 8.79 26.81 8.51 28.39 8.51 28.39 8.79"/><path class="b" d="M29.4,8.74a.53.53,0,0,0-.38.13.63.63,0,0,0-.17.42h1a.59.59,0,0,0-.11-.42.42.42,0,0,0-.33-.13m.69,1.62a1.05,1.05,0,0,1-.3.15,1.23,1.23,0,0,1-.39.05,1,1,0,0,1-.4-.07.71.71,0,0,1-.27-.21.73.73,0,0,1-.16-.33,1.51,1.51,0,0,1-.06-.44,1.19,1.19,0,0,1,.23-.78.81.81,0,0,1,.66-.27l.27,0a.55.55,0,0,1,.24.12.51.51,0,0,1,.18.24.9.9,0,0,1,.07.4,1.69,1.69,0,0,1,0,.3H28.85a1.48,1.48,0,0,0,0,.31.7.7,0,0,0,.11.23.56.56,0,0,0,.2.14.67.67,0,0,0,.3,0,.84.84,0,0,0,.27,0,.58.58,0,0,0,.21-.12Z"/><polygon class="b" points="31.93 8.79 31.3 8.79 31.3 10.52 30.98 10.52 30.98 8.79 30.35 8.79 30.35 8.51 31.93 8.51 31.93 8.79"/><rect class="a" x="36.59" y="0.07" width="0.25" height="11.08"/><path class="c" d="M.15.25H0V.1H.59V.25H.43v1H.59v.15H0V1.28H.15Z"/><path class="c" d="M1.88.35H1.46V1.43H1.17V.35H.75V.1H1.88Z"/><path class="c" d="M3,1.43H2.07V.1h.28V1.19H3Z"/><path class="c" d="M3.53.87H3.46v.56H3.17V.1h.29V.69l.06,0L3.92.1h.32L3.82.66,3.71.73l.12.08.48.62H4Z"/><path class="c" d="M4.49.11l.2,0H4.9l.21,0a.66.66,0,0,1,.2.06A.47.47,0,0,1,5.45.3a.37.37,0,0,1,0,.23.46.46,0,0,1,0,.21.64.64,0,0,1-.13.15A.75.75,0,0,1,5.15,1L4.94,1H4.78v.45H4.49Zm.42.22H4.78V.73H5l.1,0A.13.13,0,0,0,5.18.64a.22.22,0,0,0,0-.12.16.16,0,0,0,0-.1L5.11.36,5,.34Z"/><path class="c" d="M5.7.1h.86V.35H6V.66h.53V.91H6v.52H5.7Z"/><path class="c" d="M7.58.1h.26V1a.73.73,0,0,1,0,.22.46.46,0,0,1-.11.16.42.42,0,0,1-.16.09.66.66,0,0,1-.21,0,.63.63,0,0,1-.41-.12A.45.45,0,0,1,6.78,1V.1h.28V.94a.25.25,0,0,0,.07.21.28.28,0,0,0,.2.06.24.24,0,0,0,.18-.06A.28.28,0,0,0,7.58.94Z"/><path class="d" d="M0,1.75H7.83V7.89h0c0,1.5-1.75,3.25-3.9,3.25S0,9.49,0,7.9H0Z"/><path class="e" d="M4.89,9.82V9.75h0l0,.06-.08.11,0,0h.15Zm.19.22H5v.16h-.1V10H4.64V10l.26-.36H5V10h.09Zm-1-.13a.54.54,0,0,0,0,.15s0,.06.07.06a.09.09,0,0,0,.08,0,.65.65,0,0,0,0-.32.09.09,0,0,0-.08-.05s0,0-.07.05A.57.57,0,0,0,4.13,9.91ZM4,9.91a.46.46,0,0,1,.05-.23.18.18,0,0,1,.15-.07.19.19,0,0,1,.16.07.44.44,0,0,1,0,.23.34.34,0,0,1-.06.22.18.18,0,0,1-.3,0A.45.45,0,0,1,4,9.91Zm-.49-.15v0l0,0,0,0,0,0a.12.12,0,0,0,0-.09s0,0,0,0a0,0,0,0,0,0,0s-.05,0-.06,0S3.53,9.74,3.53,9.76Zm.14.28v0l0,0,0,0,0,0,0,.05a.07.07,0,0,0,0,0s0,0,0,.05a.06.06,0,0,0,.06,0l.06,0S3.67,10.07,3.67,10Zm-.26,0a.11.11,0,0,1,0-.05l0,0,0,0,0,0a.17.17,0,0,1-.06-.06.11.11,0,0,1,0-.08.14.14,0,0,1,0-.06.05.05,0,0,1,0,0l0,0h.14a.07.07,0,0,1,.06,0l0,0a.13.13,0,0,1,0,.06.11.11,0,0,1,0,.08l-.06.06.07.06a.16.16,0,0,1,0,.09.14.14,0,0,1,0,.07l0,.05-.06,0H3.52l-.06,0,0-.05A.15.15,0,0,1,3.41,10.05Zm-.6,0h.12V9.72l0,0-.08.05,0-.06L3,9.61H3v.49h.11v.1H2.81ZM6.25,6.81A1.8,1.8,0,0,0,7.48,5.22a1.22,1.22,0,0,1-.68.89,2.78,2.78,0,0,1-1.12.18A1.11,1.11,0,0,1,6.25,6.81Zm-3-4.11h.22v0h.06v.17A.12.12,0,0,0,3.47,3a.11.11,0,0,0,.08.11h0A.13.13,0,0,0,3.71,3h0s0,0,0-.05h0v0c0-.1.08-.23.18-.23H4l-.26.69H3l-.26-.68h.17c.1,0,.19.13.19.23v0A.1.1,0,0,0,3,3H3V3H3a.12.12,0,0,0,.12.12h0a.11.11,0,0,0,0-.22V2.75h.07ZM2.68,3.88,2.75,4c.35.06,1,.47.79-.11Zm0,.13c-.24-.13-.35.06-.59.12S1.8,4,1.69,3.79c.18,0,.19.13.44,0a.41.41,0,0,1,.53.11l-.14-.4a10.29,10.29,0,0,1,1.36,0h.06a1,1,0,0,1,.81,1,1.26,1.26,0,0,1-.52,1v0a1.48,1.48,0,0,0,.92-.63L5,4.75a.54.54,0,0,1-.19-.52A.49.49,0,0,1,5,3.9a.73.73,0,0,1,.24-.07L7.4,3.52c0,.08,0,.15,0,.23a2.39,2.39,0,0,1-2.29,2.5A1.38,1.38,0,0,1,3.89,5.6h0l-.22,0c-.07.29.52.51,1.2.62l-.11.16a1.4,1.4,0,0,1,.41-.06A1.36,1.36,0,1,1,3.78,7.72a1.64,1.64,0,0,1,0-.23h.05l.82,0a.46.46,0,0,0-.06.23.44.44,0,0,0,.44.44.44.44,0,0,0,0-.88H5l-.71.08a4.06,4.06,0,0,1-.81.06l-1,1.34-.12-.32c-.69-.06-.45.26-.3.39s0,.06,0,.08a.51.51,0,0,1-.47-.49.49.49,0,0,1,.92-.25L3,6.84H2.89l-.27.38a1.58,1.58,0,0,1-.36-.58l-.75-.93a.49.49,0,0,1-.14.18l-.15-.4c-.33,0-.54.07-.36.32H.93V5.68h.21l0,.44H1V6a.49.49,0,0,1-.37-.45.5.5,0,0,1,.3-.45L.77,3.78l-.23-.3h.4A.7.7,0,0,1,1.07,3a.34.34,0,0,0-.25.19.5.5,0,0,1,.51-.59c.32,0,.29,0,.46-.17a2.43,2.43,0,0,1,0,.3c.33,0,.32-.08.53-.24,0,.33,0,.66-.41.76s-.64-.13-.89.23H1.5l-.23.3L1.18,5a.43.43,0,0,1,.21.11L2,5.5,2.12,6h.06A1.6,1.6,0,0,1,3.74,4.5l0-.08H2.88Z"/></svg>